<?xml version="1.0" encoding="UTF-8" standalone="no"?>
<svg width="369px" height="431px" viewBox="0 0 369 431" version="1.1" xmlns="http://www.w3.org/2000/svg" xmlns:xlink="http://www.w3.org/1999/xlink">
    <!-- Generator: Sketch 3.6 (26304) - http://www.bohemiancoding.com/sketch -->
    <title>Group</title>
    <desc>Created with Sketch.</desc>
    <defs></defs>
    <g id="Page-1" stroke="none" stroke-width="1" fill="none" fill-rule="evenodd">
        <g id="Group" transform="translate(1.000000, 1.000000)" stroke="#000000" stroke-width="0.52156975">
            <path d="M226.810616,226.24086 L257.152599,242.404583 C257.152599,242.404583 253.076767,252.553903 251.265286,252.178002 C249.453886,251.802102 219.111903,234.134772 219.111903,234.134772 L224.093395,225.864952 L226.810616,226.24086 Z" id="path3796" fill="#000000"></path>
            <path d="M126.84544,0.000282162948 C114.555628,0.0585115896 130.901623,6.84084005 119.727814,10.7743564 C68.7966439,28.7036843 79.6258769,68.0857639 73.2820455,62.9504093 C34.6655246,31.6902149 33.236066,23.9464916 24.3679216,32.004779 C19.3392539,36.5741258 7.00779802,39.4104884 8.22472246,43.0170735 C13.4164806,58.4038207 74.6871135,66.8140865 68.9206903,70.6537211 C45.6131349,86.1733948 0.830180358,32.689864 3.83300454,58.3707703 C7.59502334,90.5445211 -27.924648,66.6980229 69.7384544,82.4469256 C74.6309342,83.2358882 60.4087543,111.709913 113.927761,144.21905 C39.6857402,178.315811 32.2308288,228.534543 20.4817361,236.61495 C-10.2580211,263.572739 19.7802207,258.244083 42.7640734,239.242406 C56.1541306,228.172305 109.179531,150.137434 99.5261236,235.361716 C88.104837,301.33841 15.5925368,312.355569 14.6910201,371.427177 C-50.7127102,424.210775 128.264374,448.589004 82.5954878,379.898158 C152.434318,256.975228 189.734708,288.979838 231.942797,379.898158 C210.521392,467.781951 363.647556,419.416166 303.527052,379.898158 C302.01129,323.61663 252.302589,300.251135 238.138822,238.1199 C227.800949,144.291443 314.967883,222.262246 333.292154,227.197471 C397.169611,240.07121 352.599653,218.274833 349.963464,215.787609 C323.356401,183.776033 241.960131,138.056723 189.843244,139.057047 C194.5216,138.387433 238.394704,108.24294 226.687894,61.5474029 C219.96911,34.7477703 190.458838,11.9385168 158.223135,5.0299477 C140.944102,1.32679659 131.654406,-0.0224595899 126.84544,0.000282162948 L126.84544,0.000282162948 Z" id="path3794" fill="#000000"></path>
            <path d="M209.501341,65.2708511 C165.490616,122.323553 123.494338,96.9678649 95.0603389,70.65788 C127.423379,78.0567224 138.003442,77.031565 152.585899,75.8068532 C194.192567,72.3124948 209.85617,65.3484958 209.501341,65.2708511 L209.501341,65.2708511 Z" id="path3792" fill="#FFFFFF"></path>
            <path d="M82.3203935,148.213644 L90.9003841,138.804417 L89.2096309,137.590176 L79.6442926,145.987761 L39.5029259,123.471855 L29.6330172,135.017996 L67.6307613,158.570515 L59.1989927,169.788585 L61.5950695,170.72044 L70.8063505,160.178964 C91.9368936,174.714162 101.604153,178.955621 113.905519,183.608788 C124.166779,187.490247 126.411049,177.568557 122.247001,172.966402 C114.350659,164.239395 107.826955,166.188934 82.3203935,148.213644 L82.3203935,148.213644 Z" id="path3777" fill="#000000"></path>
        </g>
    </g>
</svg>